<svg xmlns="http://www.w3.org/2000/svg" version="1.1" xmlns:xlink="http://www.w3.org/1999/xlink" xmlns:svgjs="http://svgjs.dev/svgjs" viewBox="0 0 1422 800"><g fill="hsl(32, 100%, 51%)" transform="matrix(2.1,0,0,2.1,-790.075,-440.55000000000007)"><circle r="2" cx="716" cy="400" opacity="0.30"></circle><circle r="2" cx="714" cy="405" opacity="0.93"></circle><circle r="2" cx="708" cy="406" opacity="0.77"></circle><circle r="2" cx="703" cy="401" opacity="0.43"></circle><circle r="2" cx="706" cy="393" opacity="0.28"></circle><circle r="2" cx="715" cy="391" opacity="0.14"></circle><circle r="2" cx="722" cy="398" opacity="0.38"></circle><circle r="2" cx="719" cy="409" opacity="0.13"></circle><circle r="2" cx="707" cy="413" opacity="0.97"></circle><circle r="2" cx="697" cy="403" opacity="0.88"></circle><circle r="2" cx="700" cy="389" opacity="0.34"></circle><circle r="2" cx="715" cy="384" opacity="0.77"></circle><circle r="2" cx="727" cy="394" opacity="0.27"></circle><circle r="2" cx="725" cy="412" opacity="0.47"></circle><circle r="2" cx="708" cy="419" opacity="0.45"></circle><circle r="2" cx="692" cy="408" opacity="0.34"></circle><circle r="2.5" cx="694" cy="388" opacity="0.95"></circle><circle r="2.5" cx="712" cy="378" opacity="0.87"></circle><circle r="2.5" cx="732" cy="389" opacity="0.43"></circle><circle r="2.5" cx="732" cy="412" opacity="0.95"></circle><circle r="2.5" cx="712" cy="425" opacity="0.61"></circle><circle r="2.5" cx="689" cy="414" opacity="0.61"></circle><circle r="2.5" cx="686" cy="388" opacity="0.32"></circle><circle r="2.5" cx="708" cy="372" opacity="0.29"></circle><circle r="2.5" cx="734" cy="382" opacity="0.24"></circle><circle r="2.5" cx="739" cy="411" opacity="0.42"></circle><circle r="2.5" cx="717" cy="431" opacity="0.85"></circle><circle r="2.5" cx="687" cy="422" opacity="0.97"></circle><circle r="2.5" cx="679" cy="391" opacity="0.26"></circle><circle r="2.5" cx="702" cy="367" opacity="0.29"></circle><circle r="2.5" cx="735" cy="374" opacity="0.64"></circle><circle r="2.5" cx="747" cy="407" opacity="0.84"></circle><circle r="2.5" cx="724" cy="435" opacity="0.39"></circle><circle r="2.5" cx="687" cy="430" opacity="0.24"></circle><circle r="2.5" cx="672" cy="395" opacity="0.15"></circle><circle r="2.5" cx="694" cy="363" opacity="0.88"></circle><circle r="2.5" cx="734" cy="365" opacity="0.31"></circle><circle r="2.5" cx="754" cy="402" opacity="0.80"></circle><circle r="2.5" cx="732" cy="438" opacity="0.97"></circle><circle r="2.5" cx="689" cy="439" opacity="0.30"></circle><circle r="2.5" cx="665" cy="402" opacity="0.53"></circle><circle r="2.5" cx="685" cy="361" opacity="0.42"></circle><circle r="2.5" cx="731" cy="356" opacity="0.53"></circle><circle r="2.5" cx="759" cy="394" opacity="0.10"></circle><circle r="2.5" cx="742" cy="439" opacity="0.78"></circle><circle r="2.5" cx="694" cy="448" opacity="0.13"></circle><circle r="2.5" cx="660" cy="411" opacity="0.86"></circle><circle r="2.5" cx="675" cy="361" opacity="0.97"></circle><circle r="2.5" cx="725" cy="348" opacity="0.75"></circle><circle r="2.5" cx="764" cy="385" opacity="0.99"></circle><circle r="2.5" cx="753" cy="438" opacity="0.27"></circle><circle r="2.5" cx="701" cy="456" opacity="0.72"></circle><circle r="2.5" cx="657" cy="421" opacity="0.21"></circle><circle r="2.5" cx="664" cy="364" opacity="0.39"></circle><circle r="2.5" cx="717" cy="340" opacity="0.86"></circle><circle r="2.5" cx="766" cy="373" opacity="0.14"></circle><circle r="2.5" cx="763" cy="434" opacity="0.45"></circle><circle r="2.5" cx="710" cy="463" opacity="0.94"></circle><circle r="2.5" cx="656" cy="432" opacity="0.94"></circle><circle r="2.5" cx="653" cy="369" opacity="0.88"></circle><circle r="2.5" cx="707" cy="334" opacity="0.18"></circle><circle r="2.5" cx="766" cy="361" opacity="0.85"></circle><circle r="2.5" cx="774" cy="427" opacity="0.49"></circle><circle r="2.5" cx="721" cy="469" opacity="0.68"></circle><circle r="2.5" cx="657" cy="445" opacity="0.60"></circle><circle r="2.5" cx="643" cy="377" opacity="0.95"></circle><circle r="2.5" cx="695" cy="329" opacity="0.50"></circle><circle r="3" cx="763" cy="349" opacity="0.19"></circle><circle r="3" cx="783" cy="418" opacity="0.15"></circle><circle r="3" cx="734" cy="472" opacity="0.69"></circle><circle r="3" cx="661" cy="458" opacity="0.23"></circle><circle r="3" cx="635" cy="387" opacity="0.17"></circle><circle r="3" cx="681" cy="327" opacity="0.23"></circle><circle r="3" cx="758" cy="336" opacity="0.55"></circle><circle r="3" cx="791" cy="407" opacity="0.22"></circle><circle r="3" cx="748" cy="473" opacity="0.43"></circle><circle r="3" cx="668" cy="470" opacity="0.92"></circle><circle r="3" cx="627" cy="400" opacity="1.00"></circle><circle r="3" cx="667" cy="328" opacity="0.19"></circle><circle r="3" cx="750" cy="324" opacity="0.32"></circle><circle r="3" cx="797" cy="393" opacity="0.75"></circle><circle r="3" cx="763" cy="471" opacity="0.67"></circle><circle r="3" cx="677" cy="482" opacity="0.75"></circle><circle r="3" cx="623" cy="415" opacity="0.16"></circle><circle r="3" cx="652" cy="331" opacity="0.44"></circle><circle r="3" cx="739" cy="313" opacity="0.86"></circle><circle r="3" cx="801" cy="378" opacity="0.96"></circle><circle r="3" cx="778" cy="466" opacity="0.75"></circle><circle r="3" cx="690" cy="492" opacity="0.53"></circle><circle r="3" cx="620" cy="431" opacity="0.81"></circle><circle r="3" cx="637" cy="338" opacity="0.62"></circle><circle r="3" cx="725" cy="303" opacity="0.60"></circle><circle r="3" cx="802" cy="361" opacity="0.77"></circle><circle r="3" cx="793" cy="457" opacity="0.32"></circle><circle r="3" cx="705" cy="501" opacity="0.54"></circle><circle r="3" cx="621" cy="448" opacity="0.28"></circle><circle r="3" cx="622" cy="348" opacity="0.50"></circle><circle r="3" cx="709" cy="296" opacity="0.68"></circle><circle r="3" cx="799" cy="343" opacity="0.93"></circle><circle r="3" cx="806" cy="446" opacity="0.94"></circle><circle r="3" cx="722" cy="506" opacity="0.12"></circle><circle r="3" cx="625" cy="466" opacity="0.18"></circle><circle r="3" cx="609" cy="361" opacity="0.17"></circle><circle r="3" cx="691" cy="292" opacity="0.22"></circle><circle r="3" cx="793" cy="326" opacity="0.64"></circle><circle r="3" cx="819" cy="432" opacity="0.15"></circle><circle r="3" cx="741" cy="509" opacity="0.87"></circle><circle r="3" cx="633" cy="483" opacity="0.16"></circle><circle r="3" cx="598" cy="377" opacity="0.40"></circle><circle r="3" cx="672" cy="291" opacity="0.90"></circle><circle r="3" cx="784" cy="308" opacity="0.80"></circle><circle r="3" cx="828" cy="414" opacity="0.43"></circle><circle r="3" cx="761" cy="508" opacity="0.44"></circle><circle r="3" cx="644" cy="500" opacity="0.47"></circle><circle r="3" cx="590" cy="395" opacity="0.78"></circle><circle r="3" cx="651" cy="293" opacity="0.14"></circle><circle r="3" cx="771" cy="292" opacity="0.89"></circle><circle r="3.5" cx="835" cy="395" opacity="0.70"></circle><circle r="3.5" cx="781" cy="504" opacity="0.99"></circle><circle r="3.5" cx="658" cy="515" opacity="0.15"></circle><circle r="3.5" cx="585" cy="416" opacity="0.60"></circle><circle r="3.5" cx="631" cy="300" opacity="0.17"></circle><circle r="3.5" cx="755" cy="278" opacity="0.28"></circle><circle r="3.5" cx="839" cy="374" opacity="0.14"></circle><circle r="3.5" cx="801" cy="496" opacity="0.65"></circle><circle r="3.5" cx="676" cy="528" opacity="0.69"></circle><circle r="3.5" cx="583" cy="438" opacity="0.43"></circle><circle r="3.5" cx="611" cy="310" opacity="0.71"></circle><circle r="3.5" cx="736" cy="267" opacity="0.66"></circle><circle r="3.5" cx="838" cy="351" opacity="0.14"></circle><circle r="3.5" cx="820" cy="484" opacity="0.40"></circle><circle r="3.5" cx="697" cy="538" opacity="0.58"></circle><circle r="3.5" cx="585" cy="461" opacity="0.46"></circle><circle r="3.5" cx="593" cy="324" opacity="0.39"></circle><circle r="3.5" cx="714" cy="258" opacity="0.53"></circle><circle r="3.5" cx="834" cy="328" opacity="0.52"></circle><circle r="3.5" cx="838" cy="468" opacity="0.54"></circle><circle r="3.5" cx="720" cy="544" opacity="0.55"></circle><circle r="3.5" cx="592" cy="484" opacity="0.63"></circle><circle r="3.5" cx="576" cy="342" opacity="0.13"></circle><circle r="3.5" cx="690" cy="254" opacity="0.69"></circle><circle r="3.5" cx="825" cy="305" opacity="0.14"></circle><circle r="3.5" cx="853" cy="448" opacity="0.42"></circle><circle r="3.5" cx="745" cy="547" opacity="0.89"></circle><circle r="3.5" cx="602" cy="506" opacity="0.11"></circle><circle r="3.5" cx="563" cy="363" opacity="0.70"></circle><circle r="3.5" cx="665" cy="253" opacity="0.94"></circle><circle r="3.5" cx="813" cy="283" opacity="0.85"></circle><circle r="3.5" cx="865" cy="425" opacity="0.79"></circle><circle r="3.5" cx="770" cy="545" opacity="0.75"></circle><circle r="3.5" cx="618" cy="527" opacity="0.26"></circle><circle r="3.5" cx="553" cy="387" opacity="0.68"></circle><circle r="3.5" cx="639" cy="257" opacity="0.34"></circle><circle r="3.5" cx="795" cy="263" opacity="0.16"></circle><circle r="3.5" cx="873" cy="400" opacity="0.89"></circle><circle r="3.5" cx="796" cy="539" opacity="0.18"></circle><circle r="3.5" cx="637" cy="546" opacity="0.69"></circle><circle r="3.5" cx="546" cy="413" opacity="0.24"></circle><circle r="3.5" cx="613" cy="266" opacity="0.21"></circle><circle r="3.5" cx="774" cy="245" opacity="0.37"></circle><circle r="3.5" cx="877" cy="373" opacity="0.56"></circle><circle r="3.5" cx="822" cy="528" opacity="0.91"></circle><circle r="3.5" cx="660" cy="562" opacity="0.69"></circle><circle r="3.5" cx="545" cy="441" opacity="0.16"></circle><circle r="3.5" cx="588" cy="279" opacity="0.77"></circle><circle r="3.5" cx="750" cy="231" opacity="0.34"></circle><circle r="3.5" cx="876" cy="344" opacity="0.67"></circle><circle r="3.5" cx="846" cy="512" opacity="0.96"></circle><circle r="4" cx="686" cy="575" opacity="0.84"></circle><circle r="4" cx="548" cy="470" opacity="0.55"></circle><circle r="4" cx="565" cy="297" opacity="0.33"></circle><circle r="4" cx="722" cy="221" opacity="0.24"></circle><circle r="4" cx="870" cy="315" opacity="0.29"></circle><circle r="4" cx="867" cy="492" opacity="0.80"></circle><circle r="4" cx="715" cy="582" opacity="0.58"></circle><circle r="4" cx="557" cy="499" opacity="0.11"></circle><circle r="4" cx="545" cy="320" opacity="0.35"></circle><circle r="4" cx="692" cy="215" opacity="0.64"></circle><circle r="4" cx="859" cy="287" opacity="0.80"></circle><circle r="4" cx="886" cy="467" opacity="0.99"></circle><circle r="4" cx="745" cy="585" opacity="0.60"></circle><circle r="4" cx="570" cy="527" opacity="0.18"></circle><circle r="4" cx="528" cy="346" opacity="0.77"></circle><circle r="4" cx="661" cy="215" opacity="0.90"></circle><circle r="4" cx="843" cy="260" opacity="0.36"></circle><circle r="4" cx="901" cy="439" opacity="0.45"></circle><circle r="4" cx="777" cy="583" opacity="0.39"></circle><circle r="4" cx="589" cy="553" opacity="0.67"></circle><circle r="4" cx="516" cy="376" opacity="0.60"></circle><circle r="4" cx="629" cy="220" opacity="0.14"></circle><circle r="4" cx="822" cy="235" opacity="0.55"></circle><circle r="4" cx="911" cy="408" opacity="0.43"></circle><circle r="4" cx="809" cy="575" opacity="0.33"></circle><circle r="4" cx="612" cy="576" opacity="0.24"></circle><circle r="4" cx="508" cy="408" opacity="0.62"></circle><circle r="4" cx="597" cy="231" opacity="0.74"></circle><circle r="4" cx="796" cy="214" opacity="0.16"></circle><circle r="4" cx="915" cy="375" opacity="0.27"></circle><circle r="4" cx="840" cy="562" opacity="0.33"></circle><circle r="4" cx="640" cy="596" opacity="0.74"></circle><circle r="4" cx="506" cy="442" opacity="0.14"></circle><circle r="4" cx="567" cy="247" opacity="0.27"></circle><circle r="4" cx="766" cy="196" opacity="0.30"></circle><circle r="4" cx="914" cy="340" opacity="0.49"></circle><circle r="4" cx="869" cy="543" opacity="0.27"></circle><circle r="4" cx="672" cy="610" opacity="0.51"></circle><circle r="4" cx="510" cy="477" opacity="0.59"></circle><circle r="4" cx="539" cy="269" opacity="0.36"></circle><circle r="4" cx="733" cy="184" opacity="0.44"></circle><circle r="4" cx="908" cy="305" opacity="0.49"></circle><circle r="4" cx="895" cy="519" opacity="0.63"></circle><circle r="4" cx="706" cy="620" opacity="0.68"></circle><circle r="4" cx="520" cy="512" opacity="0.94"></circle><circle r="4" cx="515" cy="295" opacity="0.68"></circle><circle r="4" cx="697" cy="177" opacity="0.66"></circle><circle r="4" cx="895" cy="271" opacity="0.84"></circle><circle r="4" cx="918" cy="490" opacity="0.23"></circle><circle r="4" cx="743" cy="624" opacity="0.80"></circle><circle r="4" cx="536" cy="545" opacity="0.15"></circle><circle r="4.5" cx="495" cy="327" opacity="0.51"></circle><circle r="4.5" cx="660" cy="176" opacity="0.54"></circle><circle r="4.5" cx="876" cy="239" opacity="0.46"></circle><circle r="4.5" cx="936" cy="456" opacity="0.18"></circle><circle r="4.5" cx="781" cy="622" opacity="0.45"></circle><circle r="4.5" cx="558" cy="576" opacity="0.40"></circle><circle r="4.5" cx="480" cy="362" opacity="0.98"></circle><circle r="4.5" cx="622" cy="182" opacity="0.26"></circle><circle r="4.5" cx="851" cy="209" opacity="0.35"></circle><circle r="4.5" cx="948" cy="419" opacity="0.61"></circle><circle r="4.5" cx="819" cy="613" opacity="0.66"></circle><circle r="4.5" cx="585" cy="604" opacity="0.49"></circle><circle r="4.5" cx="470" cy="400" opacity="0.48"></circle><circle r="4.5" cx="585" cy="194" opacity="0.78"></circle><circle r="4.5" cx="821" cy="184" opacity="0.11"></circle><circle r="4.5" cx="954" cy="380" opacity="0.50"></circle><circle r="4.5" cx="856" cy="597" opacity="0.58"></circle><circle r="4.5" cx="618" cy="627" opacity="0.52"></circle><circle r="4.5" cx="468" cy="440" opacity="0.60"></circle><circle r="4.5" cx="549" cy="213" opacity="0.32"></circle><circle r="4.5" cx="786" cy="163" opacity="0.48"></circle><circle r="4.5" cx="953" cy="340" opacity="0.62"></circle><circle r="4.5" cx="890" cy="576" opacity="0.83"></circle><circle r="4.5" cx="655" cy="645" opacity="0.55"></circle><circle r="4.5" cx="471" cy="481" opacity="0.25"></circle><circle r="4.5" cx="516" cy="238" opacity="0.32"></circle><circle r="4.5" cx="747" cy="148" opacity="0.98"></circle><circle r="4.5" cx="946" cy="299" opacity="0.52"></circle><circle r="4.5" cx="921" cy="548" opacity="0.66"></circle><circle r="4.5" cx="695" cy="657" opacity="0.96"></circle><circle r="4.5" cx="482" cy="522" opacity="0.52"></circle><circle r="4.5" cx="487" cy="268" opacity="0.77"></circle><circle r="4.5" cx="706" cy="139" opacity="0.22"></circle><circle r="4.5" cx="932" cy="258" opacity="0.91"></circle><circle r="4.5" cx="948" cy="514" opacity="0.70"></circle><circle r="4.5" cx="738" cy="663" opacity="0.71"></circle><circle r="4.5" cx="500" cy="561" opacity="0.15"></circle><circle r="4.5" cx="463" cy="304" opacity="0.25"></circle><circle r="4.5" cx="662" cy="137" opacity="0.26"></circle><circle r="4.5" cx="910" cy="220" opacity="0.20"></circle><circle r="4.5" cx="969" cy="476" opacity="0.51"></circle><circle r="4.5" cx="782" cy="661" opacity="0.36"></circle><circle r="4.5" cx="525" cy="597" opacity="0.26"></circle><circle r="4.5" cx="444" cy="345" opacity="0.89"></circle><circle r="4.5" cx="618" cy="143" opacity="0.32"></circle><circle r="4.5" cx="882" cy="186" opacity="0.69"></circle><circle r="4.5" cx="984" cy="434" opacity="0.53"></circle><circle r="4.5" cx="826" cy="651" opacity="0.76"></circle><circle r="4.5" cx="556" cy="630" opacity="0.25"></circle><circle r="4.5" cx="433" cy="388" opacity="0.55"></circle><circle r="4.5" cx="575" cy="156" opacity="0.92"></circle><circle r="5" cx="848" cy="155" opacity="0.70"></circle><circle r="5" cx="992" cy="389" opacity="0.69"></circle><circle r="5" cx="868" cy="635" opacity="0.21"></circle><circle r="5" cx="593" cy="658" opacity="0.21"></circle><circle r="5" cx="429" cy="435" opacity="0.20"></circle><circle r="5" cx="533" cy="177" opacity="0.34"></circle><circle r="5" cx="809" cy="131" opacity="0.56"></circle><circle r="5" cx="993" cy="342" opacity="0.31"></circle><circle r="5" cx="909" cy="610" opacity="0.84"></circle><circle r="5" cx="635" cy="679" opacity="0.44"></circle><circle r="5" cx="432" cy="482" opacity="0.17"></circle><circle r="5" cx="495" cy="204" opacity="0.82"></circle><circle r="5" cx="765" cy="112" opacity="0.99"></circle><circle r="5" cx="985" cy="295" opacity="0.43"></circle><circle r="5" cx="945" cy="579" opacity="0.77"></circle><circle r="5" cx="681" cy="694" opacity="0.34"></circle><circle r="5" cx="444" cy="529" opacity="0.59"></circle><circle r="5" cx="461" cy="239" opacity="0.27"></circle><circle r="5" cx="717" cy="101" opacity="0.59"></circle><circle r="5" cx="970" cy="249" opacity="0.76"></circle><circle r="5" cx="976" cy="542" opacity="0.97"></circle><circle r="5" cx="729" cy="701" opacity="0.28"></circle><circle r="5" cx="463" cy="574" opacity="0.56"></circle><circle r="5" cx="432" cy="279" opacity="0.26"></circle><circle r="5" cx="668" cy="98" opacity="0.48"></circle><circle r="5" cx="946" cy="205" opacity="0.18"></circle><circle r="5" cx="1002" cy="499" opacity="0.11"></circle><circle r="5" cx="779" cy="700" opacity="0.64"></circle><circle r="5" cx="490" cy="616" opacity="0.10"></circle><circle r="5" cx="410" cy="325" opacity="0.95"></circle><circle r="5" cx="618" cy="103" opacity="0.63"></circle><circle r="5" cx="915" cy="164" opacity="0.87"></circle><circle r="5" cx="1020" cy="451" opacity="0.33"></circle><circle r="5" cx="829" cy="691" opacity="1.00"></circle><circle r="5" cx="525" cy="654" opacity="0.46"></circle><circle r="5" cx="396" cy="374" opacity="0.76"></circle><circle r="5" cx="568" cy="117" opacity="0.27"></circle><circle r="5" cx="878" cy="129" opacity="0.58"></circle><circle r="5" cx="1030" cy="400" opacity="0.29"></circle><circle r="5" cx="878" cy="673" opacity="0.16"></circle><circle r="5" cx="566" cy="686" opacity="0.51"></circle><circle r="5" cx="390" cy="426" opacity="0.72"></circle><circle r="5" cx="520" cy="139" opacity="0.86"></circle><circle r="5" cx="834" cy="100" opacity="0.12"></circle><circle r="5" cx="1032" cy="347" opacity="0.18"></circle><circle r="5" cx="924" cy="647" opacity="0.69"></circle><circle r="5" cx="612" cy="712" opacity="0.42"></circle><circle r="5" cx="392" cy="479" opacity="0.70"></circle><circle r="5" cx="476" cy="169" opacity="0.99"></circle><circle r="5" cx="785" cy="78" opacity="0.96"></circle><circle r="5.5" cx="1025" cy="294" opacity="0.66"></circle><circle r="5.5" cx="966" cy="613" opacity="0.14"></circle><circle r="5.5" cx="663" cy="730" opacity="0.49"></circle><circle r="5.5" cx="404" cy="532" opacity="0.63"></circle><circle r="5.5" cx="437" cy="207" opacity="0.39"></circle><circle r="5.5" cx="732" cy="64" opacity="0.42"></circle><circle r="5.5" cx="1009" cy="242" opacity="0.39"></circle><circle r="5.5" cx="1003" cy="571" opacity="0.73"></circle><circle r="5.5" cx="718" cy="739" opacity="0.90"></circle><circle r="5.5" cx="424" cy="584" opacity="0.77"></circle><circle r="5.5" cx="403" cy="252" opacity="0.60"></circle><circle r="5.5" cx="676" cy="59" opacity="0.45"></circle><circle r="5.5" cx="984" cy="191" opacity="0.57"></circle><circle r="5.5" cx="1033" cy="524" opacity="0.56"></circle><circle r="5.5" cx="774" cy="740" opacity="0.15"></circle><circle r="5.5" cx="453" cy="632" opacity="0.36"></circle><circle r="5.5" cx="377" cy="302" opacity="0.52"></circle><circle r="5.5" cx="620" cy="63" opacity="0.48"></circle><circle r="5.5" cx="951" cy="145" opacity="0.65"></circle><circle r="5.5" cx="1054" cy="471" opacity="0.42"></circle><circle r="5.5" cx="830" cy="731" opacity="0.55"></circle><circle r="5.5" cx="491" cy="676" opacity="0.21"></circle><circle r="5.5" cx="360" cy="357" opacity="0.41"></circle><circle r="5.5" cx="564" cy="77" opacity="0.57"></circle><circle r="5.5" cx="910" cy="105" opacity="0.66"></circle><circle r="5.5" cx="1068" cy="415" opacity="0.84"></circle><circle r="5.5" cx="885" cy="713" opacity="0.11"></circle><circle r="5.5" cx="536" cy="713" opacity="0.86"></circle><circle r="5.5" cx="351" cy="414" opacity="0.60"></circle><circle r="5.5" cx="510" cy="100" opacity="0.87"></circle><circle r="5.5" cx="862" cy="71" opacity="0.41"></circle><circle r="5.5" cx="1071" cy="356" opacity="0.21"></circle><circle r="5.5" cx="938" cy="685" opacity="0.88"></circle><circle r="5.5" cx="587" cy="743" opacity="0.27"></circle><circle r="5.5" cx="352" cy="474" opacity="0.81"></circle><circle r="5.5" cx="460" cy="132" opacity="0.82"></circle><circle r="5.5" cx="808" cy="45" opacity="0.85"></circle><circle r="5.5" cx="1065" cy="296" opacity="0.66"></circle><circle r="5.5" cx="986" cy="648" opacity="0.31"></circle><circle r="5.5" cx="643" cy="765" opacity="0.67"></circle><circle r="5.5" cx="363" cy="533" opacity="0.12"></circle><circle r="5.5" cx="415" cy="173" opacity="0.12"></circle><circle r="5.5" cx="749" cy="28" opacity="0.43"></circle><circle r="5.5" cx="1049" cy="237" opacity="0.61"></circle><circle r="5.5" cx="1027" cy="604" opacity="0.59"></circle><circle r="5.5" cx="703" cy="777" opacity="0.62"></circle><circle r="5.5" cx="384" cy="591" opacity="0.23"></circle><circle r="5.5" cx="376" cy="221" opacity="0.22"></circle><circle r="5.5" cx="688" cy="20" opacity="0.79"></circle><circle r="5.5" cx="1023" cy="181" opacity="0.49"></circle><circle r="5.5" cx="1062" cy="552" opacity="0.76"></circle><circle r="6" cx="765" cy="780" opacity="0.22"></circle><circle r="6" cx="415" cy="646" opacity="0.16"></circle><circle r="6" cx="346" cy="276" opacity="0.57"></circle><circle r="6" cx="625" cy="23" opacity="0.75"></circle><circle r="6" cx="988" cy="129" opacity="0.23"></circle><circle r="6" cx="1088" cy="495" opacity="0.39"></circle><circle r="6" cx="828" cy="772" opacity="0.24"></circle><circle r="6" cx="455" cy="695" opacity="0.85"></circle><circle r="6" cx="325" cy="336" opacity="0.72"></circle><circle r="6" cx="563" cy="36" opacity="0.63"></circle><circle r="6" cx="944" cy="83" opacity="0.73"></circle><circle r="6" cx="1104" cy="433" opacity="0.93"></circle><circle r="6" cx="890" cy="753" opacity="0.97"></circle><circle r="6" cx="503" cy="738" opacity="0.31"></circle><circle r="6" cx="313" cy="400" opacity="0.62"></circle><circle r="6" cx="503" cy="60" opacity="0.84"></circle><circle r="6" cx="892" cy="44" opacity="0.69"></circle><circle r="6" cx="1110" cy="368" opacity="0.74"></circle><circle r="6" cx="948" cy="724" opacity="0.95"></circle><circle r="6" cx="558" cy="773" opacity="0.68"></circle><circle r="6" cx="312" cy="465" opacity="0.33"></circle><circle r="6" cx="446" cy="94" opacity="0.63"></circle><circle r="6" cx="834" cy="13" opacity="0.42"></circle><circle r="6" cx="1106" cy="302" opacity="0.38"></circle><circle r="6" cx="1002" cy="686" opacity="0.18"></circle><circle r="6" cx="620" cy="799" opacity="0.18"></circle><circle r="6" cx="323" cy="531" opacity="0.25"></circle><circle r="6" cx="395" cy="137" opacity="0.33"></circle><circle r="6" cx="770" cy="-8" opacity="0.29"></circle><circle r="6" cx="1090" cy="236" opacity="0.99"></circle><circle r="6" cx="1050" cy="638" opacity="0.80"></circle><circle r="6" cx="685" cy="814" opacity="0.23"></circle><circle r="6" cx="344" cy="595" opacity="0.38"></circle><circle r="6" cx="351" cy="189" opacity="0.75"></circle><circle r="6" cx="703" cy="-18" opacity="0.34"></circle><circle r="6" cx="1064" cy="174" opacity="0.53"></circle><circle r="6" cx="1089" cy="583" opacity="0.58"></circle><circle r="6" cx="753" cy="819" opacity="0.95"></circle><circle r="6" cx="375" cy="656" opacity="0.42"></circle><circle r="6" cx="316" cy="248" opacity="0.40"></circle><circle r="6" cx="634" cy="-17" opacity="0.11"></circle><circle r="6" cx="1027" cy="115" opacity="0.97"></circle><circle r="6" cx="1120" cy="520" opacity="0.44"></circle><circle r="6" cx="823" cy="812" opacity="0.54"></circle><circle r="6" cx="417" cy="712" opacity="0.41"></circle><circle r="6" cx="291" cy="313" opacity="0.98"></circle><circle r="6" cx="565" cy="-5" opacity="0.48"></circle><circle r="6" cx="980" cy="63" opacity="0.97"></circle><circle r="6" cx="1140" cy="453" opacity="1.00"></circle><circle r="6" cx="891" cy="794" opacity="0.55"></circle><circle r="6" cx="468" cy="760" opacity="0.56"></circle><circle r="6.5" cx="276" cy="382" opacity="0.47"></circle><circle r="6.5" cx="498" cy="19" opacity="0.70"></circle><circle r="6.5" cx="925" cy="18" opacity="0.25"></circle><circle r="6.5" cx="1149" cy="383" opacity="0.69"></circle><circle r="6.5" cx="956" cy="765" opacity="0.73"></circle><circle r="6.5" cx="528" cy="801" opacity="0.88"></circle><circle r="6.5" cx="273" cy="453" opacity="0.57"></circle><circle r="6.5" cx="435" cy="54" opacity="0.46"></circle><circle r="6.5" cx="862" cy="-17" opacity="0.36"></circle><circle r="6.5" cx="1146" cy="310" opacity="0.68"></circle><circle r="6.5" cx="1016" cy="725" opacity="0.41"></circle><circle r="6.5" cx="593" cy="831" opacity="0.41"></circle><circle r="6.5" cx="281" cy="526" opacity="0.63"></circle><circle r="6.5" cx="378" cy="99" opacity="0.82"></circle><circle r="6.5" cx="794" cy="-42" opacity="0.90"></circle><circle r="6.5" cx="1132" cy="239" opacity="0.75"></circle><circle r="6.5" cx="1070" cy="675" opacity="0.74"></circle><circle r="6.5" cx="664" cy="850" opacity="0.11"></circle><circle r="6.5" cx="302" cy="596" opacity="0.61"></circle><circle r="6.5" cx="329" cy="154" opacity="0.31"></circle><circle r="6.5" cx="721" cy="-56" opacity="0.79"></circle><circle r="6.5" cx="1105" cy="169" opacity="0.34"></circle><circle r="6.5" cx="1115" cy="616" opacity="0.20"></circle><circle r="6.5" cx="739" cy="858" opacity="0.57"></circle><circle r="6.5" cx="334" cy="664" opacity="0.98"></circle><circle r="6.5" cx="288" cy="217" opacity="0.39"></circle><circle r="6.5" cx="646" cy="-57" opacity="0.35"></circle><circle r="6.5" cx="1067" cy="104" opacity="0.72"></circle><circle r="6.5" cx="1150" cy="549" opacity="0.86"></circle><circle r="6.5" cx="814" cy="853" opacity="0.38"></circle><circle r="6.5" cx="378" cy="726" opacity="0.68"></circle><circle r="6.5" cx="258" cy="286" opacity="0.69"></circle><circle r="6.5" cx="570" cy="-46" opacity="0.53"></circle><circle r="6.5" cx="1019" cy="46" opacity="0.15"></circle><circle r="6.5" cx="1175" cy="477" opacity="0.42"></circle><circle r="6.5" cx="889" cy="836" opacity="0.56"></circle><circle r="6.5" cx="431" cy="781" opacity="0.87"></circle><circle r="6.5" cx="239" cy="361" opacity="0.42"></circle><circle r="6.5" cx="497" cy="-23" opacity="0.93"></circle><circle r="6.5" cx="960" cy="-5" opacity="0.28"></circle><circle r="6.5" cx="1187" cy="401" opacity="0.61"></circle><circle r="6.5" cx="960" cy="807" opacity="0.67"></circle><circle r="6.5" cx="494" cy="826" opacity="0.17"></circle><circle r="6.5" cx="233" cy="439" opacity="0.51"></circle><circle r="6.5" cx="428" cy="12" opacity="0.84"></circle><circle r="6.5" cx="893" cy="-45" opacity="0.23"></circle><circle r="6.5" cx="1187" cy="322" opacity="0.85"></circle><circle r="6.5" cx="1027" cy="766" opacity="0.36"></circle><circle r="6.5" cx="565" cy="862" opacity="0.60"></circle><circle r="6.5" cx="240" cy="517" opacity="0.18"></circle><circle r="6.5" cx="364" cy="59" opacity="0.64"></circle><circle r="7" cx="820" cy="-75" opacity="0.22"></circle><circle r="7" cx="1174" cy="244" opacity="0.92"></circle><circle r="7" cx="1087" cy="713" opacity="0.67"></circle><circle r="7" cx="641" cy="885" opacity="0.59"></circle><circle r="7" cx="260" cy="595" opacity="0.26"></circle><circle r="7" cx="308" cy="117" opacity="0.65"></circle><circle r="7" cx="742" cy="-93" opacity="0.67"></circle><circle r="7" cx="1148" cy="168" opacity="0.91"></circle><circle r="7" cx="1138" cy="651" opacity="0.68"></circle><circle r="7" cx="721" cy="897" opacity="0.40"></circle><circle r="7" cx="292" cy="669" opacity="0.66"></circle><circle r="7" cx="262" cy="183" opacity="0.12"></circle><circle r="7" cx="661" cy="-97" opacity="0.42"></circle><circle r="7" cx="1109" cy="96" opacity="0.59"></circle><circle r="7" cx="1179" cy="581" opacity="0.26"></circle><circle r="7" cx="802" cy="894" opacity="0.28"></circle><circle r="7" cx="337" cy="737" opacity="0.76"></circle><circle r="7" cx="227" cy="257" opacity="0.25"></circle><circle r="7" cx="579" cy="-88" opacity="0.97"></circle><circle r="7" cx="1059" cy="31" opacity="0.60"></circle><circle r="7" cx="1208" cy="503" opacity="0.93"></circle><circle r="7" cx="883" cy="879" opacity="0.60"></circle><circle r="7" cx="393" cy="798" opacity="0.52"></circle><circle r="7" cx="204" cy="337" opacity="0.81"></circle><circle r="7" cx="499" cy="-66" opacity="0.40"></circle><circle r="7" cx="998" cy="-25" opacity="0.49"></circle><circle r="7" cx="1225" cy="422" opacity="0.61"></circle><circle r="7" cx="962" cy="850" opacity="0.22"></circle><circle r="7" cx="459" cy="850" opacity="0.57"></circle><circle r="7" cx="194" cy="420" opacity="0.58"></circle><circle r="7" cx="423" cy="-30" opacity="0.48"></circle><circle r="7" cx="927" cy="-72" opacity="0.83"></circle><circle r="7" cx="1227" cy="337" opacity="0.54"></circle><circle r="7" cx="1035" cy="808" opacity="0.19"></circle><circle r="7" cx="533" cy="891" opacity="0.67"></circle><circle r="7" cx="199" cy="505" opacity="0.38"></circle><circle r="7" cx="352" cy="18" opacity="0.49"></circle><circle r="7" cx="849" cy="-107" opacity="0.42"></circle><circle r="7" cx="1216" cy="252" opacity="0.12"></circle><circle r="7" cx="1102" cy="754" opacity="0.36"></circle><circle r="7" cx="614" cy="919" opacity="0.14"></circle><circle r="7" cx="217" cy="589" opacity="0.24"></circle><circle r="7" cx="290" cy="77" opacity="0.86"></circle><circle r="7" cx="766" cy="-128" opacity="0.21"></circle><circle r="7" cx="1191" cy="170" opacity="0.39"></circle><circle r="7" cx="1159" cy="689" opacity="0.13"></circle><circle r="7" cx="699" cy="934" opacity="0.89"></circle><circle r="7" cx="249" cy="670" opacity="0.63"></circle><circle r="7" cx="238" cy="147" opacity="1.00"></circle><circle r="7" cx="679" cy="-136" opacity="0.96"></circle><circle r="7" cx="1152" cy="91" opacity="0.57"></circle><circle r="7.5" cx="1206" cy="615" opacity="0.88"></circle><circle r="7.5" cx="787" cy="935" opacity="0.73"></circle><circle r="7.5" cx="294" cy="746" opacity="0.54"></circle><circle r="7.5" cx="197" cy="225" opacity="0.30"></circle><circle r="7.5" cx="591" cy="-130" opacity="0.92"></circle><circle r="7.5" cx="1100" cy="19" opacity="0.56"></circle><circle r="7.5" cx="1240" cy="533" opacity="0.61"></circle><circle r="7.5" cx="875" cy="921" opacity="0.20"></circle><circle r="7.5" cx="352" cy="813" opacity="0.13"></circle><circle r="7.5" cx="170" cy="310" opacity="0.79"></circle><circle r="7.5" cx="504" cy="-109" opacity="0.92"></circle><circle r="7.5" cx="1037" cy="-44" opacity="0.87"></circle><circle r="7.5" cx="1261" cy="446" opacity="0.86"></circle><circle r="7.5" cx="960" cy="893" opacity="0.81"></circle><circle r="7.5" cx="421" cy="871" opacity="0.87"></circle><circle r="7.5" cx="156" cy="399" opacity="0.66"></circle><circle r="7.5" cx="421" cy="-74" opacity="0.48"></circle><circle r="7.5" cx="963" cy="-96" opacity="0.16"></circle><circle r="7.5" cx="1267" cy="355" opacity="0.63"></circle><circle r="7.5" cx="1041" cy="851" opacity="0.65"></circle><circle r="7.5" cx="499" cy="918" opacity="0.80"></circle><circle r="7.5" cx="157" cy="490" opacity="0.90"></circle><circle r="7.5" cx="344" cy="-25" opacity="0.49"></circle><circle r="7.5" cx="881" cy="-137" opacity="0.21"></circle><circle r="7.5" cx="1258" cy="264" opacity="0.76"></circle><circle r="7.5" cx="1114" cy="796" opacity="0.48"></circle><circle r="7.5" cx="584" cy="952" opacity="0.43"></circle><circle r="7.5" cx="174" cy="581" opacity="0.37"></circle><circle r="7.5" cx="275" cy="36" opacity="0.22"></circle><circle r="7.5" cx="793" cy="-163" opacity="0.26"></circle><circle r="7.5" cx="1235" cy="174" opacity="0.88"></circle><circle r="7.5" cx="1178" cy="729" opacity="0.70"></circle><circle r="7.5" cx="675" cy="971" opacity="0.44"></circle><circle r="7.5" cx="205" cy="669" opacity="0.57"></circle><circle r="7.5" cx="216" cy="109" opacity="0.94"></circle><circle r="7.5" cx="700" cy="-175" opacity="0.47"></circle><circle r="7.5" cx="1196" cy="89" opacity="0.32"></circle><circle r="7.5" cx="1231" cy="651" opacity="0.13"></circle><circle r="7.5" cx="769" cy="975" opacity="0.22"></circle><circle r="7.5" cx="250" cy="751" opacity="0.78"></circle><circle r="7.5" cx="170" cy="191" opacity="0.41"></circle><circle r="7.5" cx="606" cy="-172" opacity="0.18"></circle><circle r="7.5" cx="1144" cy="10" opacity="0.17"></circle><circle r="7.5" cx="1270" cy="565" opacity="0.81"></circle><circle r="7.5" cx="863" cy="964" opacity="0.97"></circle><circle r="7.5" cx="309" cy="826" opacity="0.80"></circle><circle r="7.5" cx="137" cy="280" opacity="0.71"></circle><circle r="7.5" cx="512" cy="-153" opacity="0.42"></circle><circle r="7.5" cx="1079" cy="-60" opacity="0.23"></circle><circle r="7.5" cx="1296" cy="473" opacity="0.17"></circle><circle r="8" cx="956" cy="937" opacity="0.91"></circle><circle r="8" cx="380" cy="891" opacity="0.10"></circle><circle r="8" cx="119" cy="375" opacity="0.86"></circle><circle r="8" cx="422" cy="-118" opacity="0.93"></circle><circle r="8" cx="1002" cy="-118" opacity="0.56"></circle><circle r="8" cx="1306" cy="377" opacity="0.59"></circle><circle r="8" cx="1043" cy="896" opacity="0.39"></circle><circle r="8" cx="462" cy="943" opacity="0.35"></circle><circle r="8" cx="117" cy="472" opacity="0.83"></circle><circle r="8" cx="338" cy="-69" opacity="0.56"></circle><circle r="8" cx="916" cy="-165" opacity="0.92"></circle><circle r="8" cx="1300" cy="279" opacity="0.75"></circle><circle r="8" cx="1123" cy="840" opacity="0.71"></circle><circle r="8" cx="552" cy="982" opacity="0.58"></circle><circle r="8" cx="130" cy="570" opacity="0.81"></circle><circle r="8" cx="262" cy="-7" opacity="0.66"></circle><circle r="8" cx="823" cy="-196" opacity="0.48"></circle><circle r="8" cx="1279" cy="183" opacity="0.21"></circle><circle r="8" cx="1194" cy="770" opacity="0.20"></circle><circle r="8" cx="648" cy="1007" opacity="0.92"></circle><circle r="8" cx="160" cy="664" opacity="0.51"></circle><circle r="8" cx="197" cy="68" opacity="0.66"></circle><circle r="8" cx="724" cy="-213" opacity="0.42"></circle><circle r="8" cx="1241" cy="90" opacity="0.44"></circle><circle r="8" cx="1253" cy="690" opacity="0.44"></circle><circle r="8" cx="748" cy="1015" opacity="0.77"></circle><circle r="8" cx="205" cy="754" opacity="0.52"></circle><circle r="8" cx="144" cy="154" opacity="0.75"></circle><circle r="8" cx="624" cy="-213" opacity="0.97"></circle><circle r="8" cx="1188" cy="4" opacity="0.20"></circle><circle r="8" cx="1299" cy="600" opacity="0.87"></circle><circle r="8" cx="849" cy="1007" opacity="0.31"></circle><circle r="8" cx="265" cy="835" opacity="0.99"></circle><circle r="8" cx="106" cy="248" opacity="0.45"></circle><circle r="8" cx="524" cy="-196" opacity="0.75"></circle><circle r="8" cx="1122" cy="-73" opacity="0.37"></circle><circle r="8" cx="1330" cy="503" opacity="0.61"></circle><circle r="8" cx="948" cy="982" opacity="0.96"></circle><circle r="8" cx="338" cy="907" opacity="0.91"></circle><circle r="8" cx="83" cy="348" opacity="0.34"></circle><circle r="8" cx="426" cy="-163" opacity="0.28"></circle><circle r="8" cx="1043" cy="-138" opacity="0.77"></circle><circle r="8" cx="1344" cy="401" opacity="0.64"></circle><circle r="8" cx="1042" cy="941" opacity="0.62"></circle><circle r="8" cx="423" cy="966" opacity="0.59"></circle><circle r="8" cx="77" cy="451" opacity="0.98"></circle><circle r="8" cx="335" cy="-115" opacity="0.81"></circle><circle r="8" cx="953" cy="-191" opacity="0.93"></circle><circle r="8" cx="1342" cy="297" opacity="0.90"></circle><circle r="8" cx="1130" cy="885" opacity="0.72"></circle><circle r="8" cx="517" cy="1011" opacity="0.76"></circle><circle r="8.5" cx="87" cy="555" opacity="0.60"></circle><circle r="8.5" cx="252" cy="-51" opacity="0.15"></circle><circle r="8.5" cx="855" cy="-228" opacity="0.90"></circle><circle r="8.5" cx="1323" cy="194" opacity="0.21"></circle><circle r="8.5" cx="1208" cy="814" opacity="0.64"></circle><circle r="8.5" cx="618" cy="1041" opacity="0.37"></circle><circle r="8.5" cx="115" cy="656" opacity="0.72"></circle><circle r="8.5" cx="180" cy="26" opacity="0.70"></circle><circle r="8.5" cx="752" cy="-249" opacity="0.16"></circle><circle r="8.5" cx="1287" cy="94" opacity="0.39"></circle><circle r="8.5" cx="1274" cy="731" opacity="0.82"></circle><circle r="8.5" cx="723" cy="1054" opacity="0.33"></circle><circle r="8.5" cx="160" cy="753" opacity="0.31"></circle><circle r="8.5" cx="121" cy="115" opacity="0.37"></circle><circle r="8.5" cx="645" cy="-253" opacity="0.33"></circle><circle r="8.5" cx="1234" cy="1" opacity="0.32"></circle><circle r="8.5" cx="1326" cy="637" opacity="0.12"></circle><circle r="8.5" cx="830" cy="1049" opacity="0.65"></circle><circle r="8.5" cx="220" cy="842" opacity="0.41"></circle><circle r="8.5" cx="76" cy="213" opacity="0.13"></circle><circle r="8.5" cx="538" cy="-240" opacity="0.39"></circle><circle r="8.5" cx="1167" cy="-83" opacity="0.68"></circle><circle r="8.5" cx="1362" cy="536" opacity="0.12"></circle><circle r="8.5" cx="936" cy="1027" opacity="0.77"></circle><circle r="8.5" cx="294" cy="921" opacity="0.12"></circle><circle r="8.5" cx="48" cy="317" opacity="0.48"></circle><circle r="8.5" cx="434" cy="-209" opacity="0.97"></circle><circle r="8.5" cx="1086" cy="-156" opacity="0.64"></circle><circle r="8.5" cx="1381" cy="428" opacity="0.75"></circle><circle r="8.5" cx="1038" cy="987" opacity="0.97"></circle><circle r="8.5" cx="381" cy="987" opacity="0.15"></circle><circle r="8.5" cx="37" cy="426" opacity="0.18"></circle><circle r="8.5" cx="335" cy="-161" opacity="0.11"></circle><circle r="8.5" cx="993" cy="-215" opacity="0.17"></circle><circle r="8.5" cx="1383" cy="318" opacity="0.44"></circle><circle r="8.5" cx="1133" cy="931" opacity="0.52"></circle><circle r="8.5" cx="479" cy="1038" opacity="0.96"></circle><circle r="8.5" cx="45" cy="537" opacity="0.98"></circle><circle r="8.5" cx="245" cy="-97" opacity="0.96"></circle><circle r="8.5" cx="891" cy="-258" opacity="0.27"></circle><circle r="8.5" cx="1367" cy="209" opacity="0.66"></circle><circle r="8.5" cx="1218" cy="859" opacity="0.62"></circle><circle r="8.5" cx="585" cy="1074" opacity="0.60"></circle><circle r="8.5" cx="70" cy="645" opacity="0.41"></circle><circle r="8.5" cx="166" cy="-18" opacity="0.28"></circle><circle r="8.5" cx="782" cy="-285" opacity="0.19"></circle><circle r="8.5" cx="1333" cy="102" opacity="0.56"></circle><circle r="8.5" cx="1291" cy="774" opacity="0.27"></circle><circle r="8.5" cx="696" cy="1091" opacity="0.59"></circle><circle r="8.5" cx="113" cy="749" opacity="0.62"></circle><circle r="8.5" cx="99" cy="73" opacity="0.16"></circle><circle r="9" cx="670" cy="-293" opacity="0.63"></circle><circle r="9" cx="1281" cy="1" opacity="0.73"></circle><circle r="9" cx="1350" cy="677" opacity="0.38"></circle><circle r="9" cx="809" cy="1091" opacity="0.14"></circle><circle r="9" cx="173" cy="846" opacity="0.32"></circle><circle r="9" cx="49" cy="175" opacity="0.71"></circle><circle r="9" cx="556" cy="-283" opacity="0.23"></circle><circle r="9" cx="1213" cy="-90" opacity="0.77"></circle><circle r="9" cx="1392" cy="571" opacity="0.97"></circle><circle r="9" cx="922" cy="1071" opacity="0.87"></circle><circle r="9" cx="249" cy="932" opacity="0.14"></circle><circle r="9" cx="15" cy="284" opacity="0.85"></circle><circle r="9" cx="445" cy="-255" opacity="0.91"></circle><circle r="9" cx="1130" cy="-170" opacity="0.69"></circle><circle r="9" cx="1417" cy="459" opacity="0.88"></circle><circle r="9" cx="1031" cy="1034" opacity="0.48"></circle><circle r="9" cx="338" cy="1005" opacity="0.99"></circle><circle r="9" cx="-1" cy="399" opacity="0.39"></circle><circle r="9" cx="339" cy="-208" opacity="0.22"></circle><circle r="9" cx="1035" cy="-236" opacity="0.59"></circle><circle r="9" cx="1424" cy="343" opacity="0.65"></circle><circle r="9" cx="1133" cy="978" opacity="0.69"></circle><circle r="9" cx="439" cy="1063" opacity="0.66"></circle><circle r="9" cx="2" cy="515" opacity="0.71"></circle><circle r="9" cx="241" cy="-144" opacity="0.39"></circle><circle r="9" cx="929" cy="-286" opacity="0.93"></circle><circle r="9" cx="1411" cy="226" opacity="0.56"></circle><circle r="9" cx="1226" cy="906" opacity="0.56"></circle><circle r="9" cx="549" cy="1105" opacity="0.56"></circle><circle r="9" cx="25" cy="631" opacity="0.54"></circle><circle r="9" cx="154" cy="-65" opacity="0.12"></circle><circle r="9" cx="816" cy="-319" opacity="0.42"></circle><circle r="9" cx="1379" cy="113" opacity="0.59"></circle><circle r="9" cx="1306" cy="819" opacity="0.95"></circle><circle r="9" cx="665" cy="1128" opacity="0.69"></circle><circle r="9" cx="66" cy="742" opacity="0.18"></circle><circle r="9" cx="81" cy="29" opacity="0.66"></circle><circle r="9" cx="697" cy="-332" opacity="0.43"></circle><circle r="9" cx="1329" cy="5" opacity="0.88"></circle><circle r="9" cx="1372" cy="720" opacity="0.86"></circle><circle r="9" cx="785" cy="1132" opacity="0.36"></circle><circle r="9" cx="125" cy="846" opacity="0.47"></circle><circle r="9" cx="23" cy="134" opacity="0.87"></circle><circle r="9" cx="577" cy="-326" opacity="0.11"></circle><circle r="9" cx="1261" cy="-95" opacity="0.15"></circle><circle r="9" cx="1421" cy="610" opacity="0.32"></circle><circle r="9" cx="904" cy="1116" opacity="0.65"></circle><circle r="9" cx="201" cy="940" opacity="0.13"></circle><circle r="9" cx="-17" cy="248" opacity="0.33"></circle><circle r="9" cx="459" cy="-301" opacity="0.98"></circle><circle r="9" cx="1177" cy="-182" opacity="0.49"></circle><circle r="9.5" cx="1452" cy="492" opacity="0.10"></circle><circle r="9.5" cx="1020" cy="1081" opacity="0.83"></circle><circle r="9.5" cx="292" cy="1021" opacity="0.88"></circle><circle r="9.5" cx="-38" cy="368" opacity="0.58"></circle><circle r="9.5" cx="346" cy="-256" opacity="0.70"></circle><circle r="9.5" cx="1079" cy="-255" opacity="0.70"></circle><circle r="9.5" cx="1463" cy="371" opacity="0.90"></circle><circle r="9.5" cx="1130" cy="1026" opacity="0.86"></circle><circle r="9.5" cx="396" cy="1086" opacity="0.91"></circle><circle r="9.5" cx="-39" cy="491" opacity="0.29"></circle><circle r="9.5" cx="240" cy="-192" opacity="0.67"></circle><circle r="9.5" cx="970" cy="-312" opacity="0.13"></circle><circle r="9.5" cx="1454" cy="248" opacity="0.49"></circle><circle r="9.5" cx="1231" cy="954" opacity="0.87"></circle><circle r="9.5" cx="510" cy="1134" opacity="0.34"></circle><circle r="9.5" cx="-20" cy="613" opacity="0.44"></circle><circle r="9.5" cx="146" cy="-112" opacity="0.93"></circle><circle r="9.5" cx="852" cy="-351" opacity="0.83"></circle><circle r="9.5" cx="1425" cy="127" opacity="0.55"></circle><circle r="9.5" cx="1319" cy="866" opacity="0.16"></circle><circle r="9.5" cx="632" cy="1163" opacity="0.70"></circle><circle r="9.5" cx="18" cy="732" opacity="0.24"></circle><circle r="9.5" cx="65" cy="-17" opacity="0.80"></circle><circle r="9.5" cx="728" cy="-370" opacity="0.12"></circle><circle r="9.5" cx="1377" cy="11" opacity="0.44"></circle><circle r="9.5" cx="1392" cy="764" opacity="0.92"></circle><circle r="9.5" cx="757" cy="1172" opacity="0.15"></circle><circle r="9.5" cx="77" cy="844" opacity="1.00"></circle><circle r="9.5" cx="0" cy="91" opacity="0.43"></circle><circle r="9.5" cx="602" cy="-368" opacity="0.67"></circle><circle r="9.5" cx="1309" cy="-96" opacity="0.21"></circle><circle r="9.5" cx="1448" cy="651" opacity="0.72"></circle><circle r="9.5" cx="883" cy="1160" opacity="0.16"></circle><circle r="9.5" cx="153" cy="945" opacity="0.68"></circle><circle r="9.5" cx="-47" cy="209" opacity="0.16"></circle><circle r="9.5" cx="477" cy="-346" opacity="0.57"></circle><circle r="9.5" cx="1225" cy="-191" opacity="0.20"></circle><circle r="9.5" cx="1485" cy="529" opacity="0.14"></circle><circle r="9.5" cx="1006" cy="1128" opacity="0.51"></circle><circle r="9.5" cx="245" cy="1033" opacity="0.47"></circle><circle r="9.5" cx="-74" cy="334" opacity="0.45"></circle><circle r="9.5" cx="356" cy="-304" opacity="0.92"></circle><circle r="9.5" cx="1125" cy="-272" opacity="0.42"></circle><circle r="9.5" cx="1501" cy="401" opacity="0.14"></circle><circle r="9.5" cx="1124" cy="1075" opacity="0.71"></circle><circle r="9.5" cx="351" cy="1106" opacity="0.91"></circle><circle r="9.5" cx="-80" cy="463" opacity="0.24"></circle><circle r="9.5" cx="243" cy="-242" opacity="0.13"></circle><circle r="9.5" cx="1013" cy="-336" opacity="0.69"></circle><circle r="9.5" cx="1497" cy="272" opacity="0.93"></circle><circle r="9.5" cx="1232" cy="1004" opacity="1.00"></circle><circle r="10" cx="469" cy="1161" opacity="0.89"></circle><circle r="10" cx="-65" cy="592" opacity="0.94"></circle><circle r="10" cx="140" cy="-161" opacity="1.00"></circle><circle r="10" cx="891" cy="-381" opacity="0.76"></circle><circle r="10" cx="1472" cy="144" opacity="0.54"></circle><circle r="10" cx="1328" cy="915" opacity="0.32"></circle><circle r="10" cx="595" cy="1196" opacity="0.16"></circle><circle r="10" cx="-29" cy="718" opacity="0.90"></circle><circle r="10" cx="52" cy="-65" opacity="0.78"></circle><circle r="10" cx="762" cy="-406" opacity="0.72"></circle><circle r="10" cx="1425" cy="21" opacity="0.56"></circle><circle r="10" cx="1409" cy="811" opacity="0.96"></circle><circle r="10" cx="726" cy="1211" opacity="0.87"></circle><circle r="10" cx="27" cy="838" opacity="0.66"></circle><circle r="10" cx="-21" cy="46" opacity="0.59"></circle><circle r="10" cx="630" cy="-410" opacity="0.99"></circle><circle r="10" cx="1359" cy="-94" opacity="0.85"></circle><circle r="10" cx="1472" cy="694" opacity="0.44"></circle><circle r="10" cx="859" cy="1203" opacity="0.86"></circle><circle r="10" cx="103" cy="947" opacity="0.31"></circle><circle r="10" cx="-74" cy="168" opacity="0.99"></circle><circle r="10" cx="498" cy="-392" opacity="0.81"></circle><circle r="10" cx="1275" cy="-197" opacity="0.70"></circle><circle r="10" cx="1516" cy="568" opacity="0.22"></circle><circle r="10" cx="989" cy="1175" opacity="0.11"></circle></g></svg>