<?xml version="1.0" encoding="UTF-8" standalone="no"?> <svg xmlns="http://www.w3.org/2000/svg" viewBox="0 0 64 64"><title>2</title><g id="Layer_61" data-name="Layer 61"><path d="M21.87,13.67a2,2,0,0,0-2.83,0L2.13,30.59a2,2,0,0,0,0,2.83L19,50.33a2,2,0,0,0,2.83-2.83L6.37,32l15.5-15.5A2,2,0,0,0,21.87,13.67Z"/><path d="M61.41,30.59,44.5,13.67a2,2,0,0,0-2.83,2.83L57.17,32,41.67,47.5a2,2,0,1,0,2.83,2.83L61.41,33.41A2,2,0,0,0,61.41,30.59Z"/><path d="M36.93,7.49a2,2,0,0,0-2.36,1.57L25.5,54.15a2,2,0,0,0,1.57,2.36,2,2,0,0,0,.4,0,2,2,0,0,0,2-1.61L38.5,9.85A2,2,0,0,0,36.93,7.49Z"/></g></svg>