<svg width="4094" height="1132" viewBox="0 0 4094 1132" fill="none" xmlns="http://www.w3.org/2000/svg">
<g id="Group 10">
<g id="asset 2" clip-path="url(#clip0_248_2471)">
<path id="Vector" d="M2156.73 513.579H1937.42C1893.26 513.579 1857.46 523.477 1857.46 535.688V596.327C1857.46 608.538 1893.26 618.437 1937.42 618.437H2156.73C2200.89 618.437 2236.69 608.538 2236.69 596.327V535.688C2236.69 523.479 2200.89 513.579 2156.73 513.579ZM1537.62 171.208H1318.3C1274.14 171.208 1238.34 181.107 1238.34 193.318V253.957C1238.34 266.168 1274.14 276.066 1318.3 276.066H1537.62C1581.78 276.066 1617.58 266.168 1617.58 253.957V193.318C1617.58 181.107 1581.78 171.208 1537.62 171.208ZM1737.68 960.809H2156.73C2200.89 960.809 2236.69 950.911 2236.69 938.7V706.874C2236.69 694.663 2200.89 684.765 2156.73 684.765H1318.3C1274.14 684.765 1238.34 694.663 1238.34 706.874V938.698C1238.34 950.909 1274.14 960.807 1318.3 960.807H1737.52L1737.68 960.809ZM2775.85 855.951H2556.53C2512.37 855.951 2476.57 865.85 2476.57 878.061V938.7C2476.57 950.911 2512.37 960.809 2556.53 960.809H2775.85C2820.01 960.809 2855.81 950.911 2855.81 938.7V878.061C2855.81 865.85 2820.01 855.951 2775.85 855.951ZM2775.85 447.251C2820.01 447.251 2855.81 437.352 2855.81 425.141V193.318C2855.81 181.107 2820.01 171.208 2775.85 171.208H1937.42C1893.26 171.208 1857.46 181.107 1857.46 193.318V425.143C1857.46 437.354 1893.26 447.253 1937.42 447.253H2775.85V447.251ZM1537.62 618.437C1581.78 618.437 1617.58 608.538 1617.58 596.327V364.502C1617.58 352.291 1581.78 342.392 1537.62 342.392H699.194C655.032 342.392 619.233 352.291 619.233 364.502V596.325C619.233 608.536 655.032 618.435 699.194 618.435H1537.62V618.437ZM3794.78 789.623H4014.01C4058.18 789.623 4093.98 779.725 4093.98 767.514V706.874C4093.98 694.663 4058.18 684.765 4014.01 684.765H3794.78C3750.62 684.765 3714.82 694.663 3714.82 706.874V767.514C3714.82 779.725 3750.62 789.623 3794.78 789.623ZM699.194 789.623H918.503C962.665 789.623 998.464 779.725 998.464 767.514V706.874C998.464 694.663 962.665 684.765 918.503 684.765H699.194C655.032 684.765 619.233 694.663 619.233 706.874V767.514C619.233 779.725 655.032 789.623 699.194 789.623ZM3794.78 342.395C3750.62 342.395 3714.82 352.293 3714.82 364.504V596.33C3714.82 608.541 3750.62 618.439 3794.78 618.439H4014.01C4058.18 618.439 4093.98 608.541 4093.98 596.33V364.504C4093.98 352.293 4058.18 342.395 4014.01 342.395H3794.78ZM3095.7 253.957C3095.7 266.168 3131.49 276.066 3175.66 276.066H4014.01C4058.18 276.066 4093.98 266.168 4093.98 253.957V22.1094C4093.98 9.89837 4058.18 0 4014.01 0H3175.66C3131.49 0 3095.7 9.89837 3095.7 22.1094V253.957ZM3394.97 789.623C3439.14 789.623 3474.93 779.725 3474.93 767.514V535.688C3474.93 523.477 3439.14 513.579 3394.97 513.579H2556.53C2512.37 513.579 2476.57 523.477 2476.57 535.688V767.514C2476.57 779.725 2512.37 789.623 2556.53 789.623H3394.97ZM299.317 342.395H79.9844C35.822 342.395 0.0234375 352.293 0.0234375 364.504V425.143C0.0234375 437.354 35.822 447.253 79.9844 447.253H299.317C343.48 447.253 379.278 437.354 379.278 425.143V364.504C379.278 352.293 343.48 342.395 299.317 342.395ZM3394.97 342.395H3175.66C3131.49 342.395 3095.7 352.293 3095.7 364.504V425.143C3095.7 437.354 3131.49 447.253 3175.66 447.253H3394.97C3439.14 447.253 3474.93 437.354 3474.93 425.143V364.504C3474.93 352.293 3439.13 342.395 3394.97 342.395ZM1238.35 1049.25V1109.89C1238.35 1122.1 1274.15 1132 1318.31 1132H1537.62C1581.79 1132 1617.59 1122.1 1617.59 1109.89V1049.25C1617.59 1037.04 1581.79 1027.14 1537.62 1027.14H1318.31C1274.15 1027.14 1238.35 1037.04 1238.35 1049.25ZM4093.98 878.061C4093.98 865.85 4058.18 855.951 4014.01 855.951H3175.66C3131.49 855.951 3095.7 865.85 3095.7 878.061V1109.89C3095.7 1122.1 3131.49 1132 3175.66 1132H4014.01C4058.18 1132 4093.98 1122.1 4093.98 1109.89V878.061ZM1857.46 1049.25V1109.89C1857.46 1122.1 1893.26 1132 1937.42 1132H2775.85C2820.01 1132 2855.81 1122.1 2855.81 1109.89V1049.25C2855.81 1037.04 2820.01 1027.14 2775.85 1027.14H1937.42C1893.26 1027.14 1857.46 1037.04 1857.46 1049.25ZM0.0234375 878.067V1109.89C0.0234375 1122.1 35.822 1132 79.9844 1132H918.431C962.593 1132 998.392 1122.1 998.392 1109.89V878.067C998.392 865.856 962.593 855.958 918.431 855.958H79.9844C35.8299 855.958 0.0234375 865.856 0.0234375 878.067ZM299.285 513.579H79.9844C35.822 513.579 0.0234375 523.477 0.0234375 535.688V767.514C0.0234375 779.725 35.822 789.623 79.9844 789.623H299.285C343.448 789.623 379.246 779.725 379.246 767.514V535.688C379.246 523.479 343.448 513.579 299.285 513.579ZM1737.52 104.88H2156.73C2200.89 104.88 2236.69 94.9819 2236.69 82.7709V22.1094C2236.69 9.89837 2200.89 0 2156.73 0H1318.31C1274.15 0 1238.35 9.89837 1238.35 22.1094V82.7709C1238.35 94.9819 1274.15 104.88 1318.31 104.88H1737.52ZM2855.81 82.7709V22.1094C2855.81 9.89837 2820.01 0 2775.85 0H2556.53C2512.37 0 2476.57 9.89837 2476.57 22.1094V82.7709C2476.57 94.9819 2512.37 104.88 2556.53 104.88H2775.85C2820.01 104.88 2855.81 94.9819 2855.81 82.7709ZM0.0234375 253.957C0.0234375 266.168 35.822 276.066 79.9844 276.066H918.431C962.593 276.066 998.392 266.168 998.392 253.957V22.1094C998.392 9.89837 962.593 0 918.431 0H79.9844C35.822 0 0.0234375 9.89837 0.0234375 22.1094V253.957Z" fill="url(#paint0_linear_248_2471)"/>
</g>
</g>
<defs>
<linearGradient id="paint0_linear_248_2471" x1="0.0234375" y1="0" x2="4093.98" y2="0" gradientUnits="userSpaceOnUse">
<stop stop-color="#F6D365"/>
<stop offset="1" stop-color="#FDA085"/>
</linearGradient>
<clipPath id="clip0_248_2471">
<rect width="4094" height="1132" fill="white"/>
</clipPath>
</defs>
</svg>
