<svg id="10015.io" viewBox="0 0 1200 630" xmlns="http://www.w3.org/2000/svg"><defs><pattern id="svg-pattern" x="0" y="0" width="40" height="40" patternUnits="userSpaceOnUse" patternTransform="translate(30, 30) rotate(36) skewX(0)"><svg width="10" height="10" viewBox="0 0 100 100"><g fill="#47d3ff" opacity="0.35"><path d="M85.4169 83.3333C85.0752 83.3333 84.7335 83.275 84.4085 83.1666L2.11685 55.0416C0.93352 54.6333 0.10852 53.5666 0.00851966 52.3208C-0.083147 51.075 0.57102 49.8916 1.67519 49.3125L95.4252 0.354121C96.471 -0.183379 97.7335 -0.100046 98.6835 0.579121C99.6419 1.26245 100.138 2.42079 99.9669 3.58745L88.5085 80.6708C88.371 81.5875 87.8335 82.3958 87.0377 82.8791C86.546 83.1791 85.9835 83.3333 85.4169 83.3333ZM11.0252 51.4791L82.8752 76.0375L92.8794 8.73745L11.0252 51.4791Z"></path><path d="M39.584 95.8334C39.259 95.8334 38.9298 95.7834 38.6132 95.6792C37.3257 95.2542 36.459 94.0584 36.459 92.7084V64.5834C36.459 63.7959 36.759 63.0292 37.2965 62.45L94.5882 0.991703C95.7632 -0.274964 97.7507 -0.337464 99.009 0.837536C100.271 2.01254 100.338 3.9917 99.1632 5.25837L42.709 65.8125V83.1792L53.1382 68.9834C54.159 67.6 56.1173 67.2917 57.509 68.3167C58.9007 69.3375 59.1965 71.2959 58.1757 72.6875L42.1048 94.5625C41.5006 95.375 40.559 95.8334 39.584 95.8334Z"></path></g></svg></pattern></defs><rect x="0" y="0" width="100%" height="100%" fill="#ffffff"></rect><rect x="0" y="0" width="100%" height="100%" fill="url(#svg-pattern)"></rect></svg>